<?xml version="1.0" encoding="UTF-8"?>
<svg width="752pt" height="752pt" version="1.1" viewBox="0 0 752 752" xmlns="http://www.w3.org/2000/svg">
 <path d="m487.77 209.77c-21.312 0-38.832 17.523-38.832 38.832v14.207c-3.7891-1.4219-7.5781-2.3672-11.367-2.3672-7.5781-0.47266-14.68 1.4219-20.836 4.7344-6.6289-11.367-17.996-18.941-31.258-19.891-5.2109-0.47266-10.418 0.47266-15.629 2.3672v-38.359c0-21.312-16.102-39.309-36.938-40.254-10.891-0.47266-20.836 3.3164-28.887 10.418-7.5781 7.1055-12.312 17.523-12.312 27.941l-0.003906 144.92-10.891-9.4727c-17.996-14.68-34.57-17.996-49.727-8.9961-8.9961 5.2109-15.156 14.207-17.523 24.625-2.3672 10.891-0.47266 22.258 5.6836 31.73l91.875 138.29v35.992c0 7.1055 5.6836 12.785 12.785 12.785h156.75c7.1055 0 12.785-5.6836 12.785-12.785l0.003907-49.254 26.52-48.777c4.2617-8.0508 6.6289-17.051 6.6289-26.52l0.003906-103.72v-87.613c0-21.309-17.523-38.832-38.836-38.832zm13.734 230.64c0 5.2109-1.4219 9.9453-3.7891 14.207l-27.941 51.621c-0.94531 1.8945-1.4219 3.7891-1.4219 6.1562l0.003906 38.832h-131.66v-27.469c0-2.3672-0.94531-4.7344-1.8945-7.1055l-94.242-141.12c-2.3672-3.3164-3.3164-8.0508-2.3672-11.84 0.47266-1.8945 1.8945-5.6836 5.6836-8.0508 1.8945-1.4219 7.1055-4.2617 20.363 6.6289l21.785 18.941c3.7891 3.3164 6.1562 8.0508 6.1562 13.262v8.0508c0 7.1055 5.6836 12.785 12.785 12.785 7.1055 0 12.785-5.6836 12.785-12.785v-194.64c0-3.7891 1.4219-7.1055 4.2617-9.9453 2.8398-2.3672 6.1562-3.7891 9.9453-3.7891 7.1055 0.47266 12.785 7.1055 12.785 15.156v134.5c0 7.1055 5.6836 12.785 12.785 12.785 7.1055 0 12.785-5.6836 12.785-12.785l0.007812-59.195c0-3.7891 1.4219-7.1055 4.2617-9.9453 2.8398-2.3672 6.1562-3.7891 9.9453-3.7891 7.1055 0.47266 12.785 7.1055 12.785 14.68v58.25c0 7.1055 5.6836 12.785 12.785 12.785 7.1055 0 12.785-5.6836 12.785-12.785v-44.516c0-3.7891 1.4219-7.1055 4.2617-9.9453 2.8398-2.3672 6.1562-3.7891 9.9453-3.7891 6.6289 0.47266 12.312 6.6289 12.785 14.207v60.145c0 7.1055 5.6836 12.785 12.785 12.785 7.1055 0 12.785-5.6836 12.785-12.785v-112.24c0-7.5781 6.1562-13.262 13.262-13.262 7.5781 0 13.262 6.1562 13.262 13.262l0.47266 87.613 0.007813 105.14z" fill="#a856a3"/>
</svg>
